<svg xmlns="http://www.w3.org/2000/svg" version="1.1" xmlns:xlink="http://www.w3.org/1999/xlink" xmlns:svgjs="http://svgjs.dev/svgjs" width="1500" height="195" viewBox="0 0 1500 195"><g transform="matrix(1,0,0,1,-0.05875370919875422,-1.5921306818181904)"><svg viewBox="0 0 337 44" data-background-color="#4f2730" preserveAspectRatio="xMidYMid meet" height="195" width="1500" xmlns="http://www.w3.org/2000/svg" xmlns:xlink="http://www.w3.org/1999/xlink"><g id="tight-bounds" transform="matrix(1,0,0,1,0.013199999999983447,0.35925000000000296)"><svg viewBox="0 0 336.97360000000003 43.281499999999994" height="43.281499999999994" width="336.97360000000003"><g><svg viewBox="0 0 336.97360000000003 43.281499999999994" height="43.281499999999994" width="336.97360000000003"><g><svg viewBox="0 0 336.97360000000003 43.281499999999994" height="43.281499999999994" width="336.97360000000003"><g id="textblocktransform"><svg viewBox="0 0 336.97360000000003 43.281499999999994" height="43.281499999999994" width="336.97360000000003" id="textblock"><g><svg viewBox="0 0 336.97360000000003 43.281499999999994" height="43.281499999999994" width="336.97360000000003"><g><svg><g></g><g></g></svg></g><g><svg><g><svg></svg></g><g></g></svg></g><g id="text-0"><svg viewBox="0 0 336.97360000000003 43.281499999999994" height="43.281499999999994" width="336.97360000000003"><g transform="matrix(1,0,0,1,0,0)"><svg width="300.7862" viewBox="2.05 -25.35 185.89 26.75" height="43.281499999999994" data-palette-color="#ffdbe7"><path d="M14.3 0.45Q8.65 0.45 5.35-2.8 2.05-6.05 2.05-11.65L2.05-11.65Q2.05-15.6 3.88-18.73 5.7-21.85 8.97-23.6 12.25-25.35 16.4-25.35L16.4-25.35Q17.9-25.35 19.53-25.15 21.15-24.95 22.28-24.7 23.4-24.45 23.7-24.4L23.7-24.4 23.9-24.1Q23.85-23.85 23.65-22.93 23.45-22 23.2-20.5 22.95-19 22.85-17.3L22.85-17.3 20.35-17.15Q20.35-17.3 20.4-17.85 20.45-18.4 20.45-19.1L20.45-19.1Q20.45-22.6 14.85-22.6L14.85-22.6Q10.95-22.6 8.7-20.03 6.45-17.45 6.45-12.95L6.45-12.95Q6.45-7.95 8.83-5 11.2-2.05 15.2-2.05L15.2-2.05Q17.85-2.05 19.43-3.48 21-4.9 21.7-7.95L21.7-7.95 24.2-8.15Q24.05-7.55 23.68-5.45 23.3-3.35 23.15-1.5L23.15-1.5 22.85-1.1Q22.55-1 21.43-0.63 20.3-0.25 18.4 0.1 16.5 0.45 14.3 0.45L14.3 0.45ZM29.35 0.45L29.6-1.6Q31.45-1.95 32.1-2.63 32.75-3.3 32.75-4.95L32.75-4.95 32.8-20.85Q32.8-22.1 32.5-22.53 32.2-22.95 31.3-22.95L31.3-22.95 29.95-22.9 29.8-23.1 30.1-25Q30.6-25 31.97-24.95 33.35-24.9 34.75-24.9L34.75-24.9Q35.9-24.9 37.5-25.05 39.1-25.2 39.6-25.25L39.6-25.25 39.4-23.2Q38.2-23 37.7-22.73 37.2-22.45 37.02-21.88 36.85-21.3 36.75-19.9L36.75-19.9 36.5-13.85 43-13.8Q45.65-13.8 48.75-14.15L48.75-14.15 48.8-20.85Q48.8-22.1 48.5-22.53 48.2-22.95 47.3-22.95L47.3-22.95 45.9-22.9 45.8-23.1 46.1-25Q46.55-24.95 47.85-24.93 49.15-24.9 50.4-24.9L50.4-24.9Q51.6-24.9 53.32-25.05 55.05-25.2 55.6-25.25L55.6-25.25 55.45-23.2Q53.9-23 53.4-22.58 52.9-22.15 52.85-21L52.85-21Q52.65-17.05 52.47-12.18 52.3-7.3 52.3-4.65L52.3-4.65Q52.3-3.05 52.65-2.53 53-2 54.05-2L54.05-2Q54.65-2 55.15-2.05 55.65-2.1 55.8-2.1L55.8-2.1 55.95-1.9 55.55 0.1Q55 0.1 53.47 0.05 51.95 0 50.3 0L50.3 0 45.3 0.05 45.7-1.95Q47-1.95 47.62-2.27 48.25-2.6 48.5-3.43 48.75-4.25 48.75-5.9L48.75-5.9 48.75-11.5 43-11.55Q42.2-11.55 39.75-11.38 37.3-11.2 36.45-11.15L36.45-11.15 36.3-4.65Q36.3-3.05 36.65-2.5 37-1.95 38.05-1.95L38.05-1.95Q38.65-1.95 39.15-2 39.65-2.05 39.8-2.1L39.8-2.1 39.9-1.9 39.55 0.1Q39.15 0.1 38.02 0.05 36.9 0 35.65 0L35.65 0Q33.8 0 31.6 0.15 29.4 0.3 29.35 0.45L29.35 0.45ZM72.3 0.35L72.15 0.1 72.3-1.7Q74.4-1.85 75.12-2.15 75.84-2.45 75.84-3.15L75.84-3.15Q75.84-3.95 75.5-4.85L75.5-4.85 74.3-8.7Q73.3-8.75 70.15-8.75L70.15-8.75Q68.7-8.75 65.84-8.45L65.84-8.45 64.45-4.75Q64.09-3.6 64.09-3.35L64.09-3.35Q64.09-2.55 64.65-2.2 65.2-1.85 66.45-1.85L66.45-1.85 68.59-1.85 68.75-1.65 68.45 0.25Q67.95 0.2 66.17 0.1 64.4 0 62.7 0L62.7 0Q61.1 0 59.82 0.05 58.55 0.1 58.1 0.1L58.1 0.1 58.4-1.95Q59.5-2.1 60.15-2.73 60.8-3.35 61.45-4.85L61.45-4.85 69.3-24.7 72.84-25.35 73.2-25.3Q73.2-25.1 75.47-17.4 77.75-9.7 79.55-4.65L79.55-4.65Q80.05-3.2 80.82-2.63 81.59-2.05 83.3-1.9L83.3-1.9 83.4-1.7 83.15 0.1Q82.65 0.1 81.3 0.05 79.95 0 78.59 0L78.59 0Q76.55 0 74.7 0.15 72.84 0.3 72.3 0.35L72.3 0.35ZM66.65-10.8L70.05-10.8Q71.8-10.8 73.7-11L73.7-11 70.65-20.7 70.3-20.7 66.65-10.8ZM86.64 0.4L86.94-1.7Q88.54-1.95 89.12-2.63 89.69-3.3 89.69-5L89.69-5 89.74-20.85Q89.74-22.1 89.44-22.53 89.14-22.95 88.24-22.95L88.24-22.95 86.89-22.9 86.74-23.1 87.04-25Q87.29-25 88.54-24.95 89.79-24.9 91.89-24.9L91.89-24.9Q92.99-24.9 94.62-25.05 96.24-25.2 96.74-25.25L96.74-25.25 96.54-23.15Q95.19-23 94.64-22.68 94.09-22.35 93.99-21.85 93.89-21.35 93.74-19.8L93.74-19.8Q93.24-13.1 93.24-4.95L93.24-4.95Q93.24-3.7 93.47-3.13 93.69-2.55 94.37-2.35 95.04-2.15 96.49-2.15L96.49-2.15Q98.89-2.15 100.02-2.55 101.14-2.95 101.72-4.13 102.29-5.3 102.74-7.85L102.74-7.85 104.94-8.1 105.09-7.8Q104.99-7.15 104.62-4.83 104.24-2.5 103.94 0.05L103.94 0.05 103.69 0.35Q102.54 0.3 98.82 0.15 95.09 0 92.54 0L92.54 0Q90.54 0 88.82 0.18 87.09 0.35 86.64 0.4L86.64 0.4ZM121.14 0.35L120.99 0.1 121.14-1.7Q123.24-1.85 123.97-2.15 124.69-2.45 124.69-3.15L124.69-3.15Q124.69-3.95 124.34-4.85L124.34-4.85 123.14-8.7Q122.14-8.75 118.99-8.75L118.99-8.75Q117.54-8.75 114.69-8.45L114.69-8.45 113.29-4.75Q112.94-3.6 112.94-3.35L112.94-3.35Q112.94-2.55 113.49-2.2 114.04-1.85 115.29-1.85L115.29-1.85 117.44-1.85 117.59-1.65 117.29 0.25Q116.79 0.2 115.02 0.1 113.24 0 111.54 0L111.54 0Q109.94 0 108.66 0.05 107.39 0.1 106.94 0.1L106.94 0.1 107.24-1.95Q108.34-2.1 108.99-2.73 109.64-3.35 110.29-4.85L110.29-4.85 118.14-24.7 121.69-25.35 122.04-25.3Q122.04-25.1 124.31-17.4 126.59-9.7 128.39-4.65L128.39-4.65Q128.89-3.2 129.66-2.63 130.44-2.05 132.14-1.9L132.14-1.9 132.24-1.7 131.99 0.1Q131.49 0.1 130.14 0.05 128.79 0 127.44 0L127.44 0Q125.39 0 123.54 0.15 121.69 0.3 121.14 0.35L121.14 0.35ZM115.49-10.8L118.89-10.8Q120.64-10.8 122.54-11L122.54-11 119.49-20.7 119.14-20.7 115.49-10.8ZM155.54-6.8L155.49-21.25Q155.49-22.9 154.14-22.9L154.14-22.9 152.64-22.9 152.54-23.1 152.89-25.05Q153.34-25 154.59-24.95 155.84-24.9 157.14-24.9L157.14-24.9Q158.24-24.9 159.61-25.03 160.99-25.15 161.39-25.2L161.39-25.2 161.19-23.15Q159.74-22.95 159.11-22.38 158.49-21.8 158.44-20.65L158.44-20.65 157.84 0.85 155.89 1.4Q151.14-5.55 146.29-12.2 141.44-18.85 141.44-18.75L141.44-18.75 141.19-18.75 141.04-3.6Q141.04-2.65 141.34-2.3 141.64-1.95 142.34-1.95L142.34-1.95 144.34-2 144.49-1.85 144.09 0.15Q143.64 0.1 142.31 0.05 140.99 0 139.54 0L139.54 0Q138.39 0 137.09 0.13 135.79 0.25 135.39 0.3L135.39 0.3 135.64-1.75Q136.89-1.9 137.49-2.48 138.09-3.05 138.14-4.2L138.14-4.2 138.69-20.7Q138.69-21.95 137.96-22.43 137.24-22.9 135.19-23.15L135.19-23.15 134.99-23.4 135.34-25.1Q135.74-25.05 136.86-24.98 137.99-24.9 139.14-24.9L139.14-24.9Q140.24-24.9 141.09-24.95 141.94-25 142.19-25.05L142.19-25.05Q146.24-19.1 150.76-12.9 155.29-6.7 155.29-6.8L155.29-6.8 155.54-6.8ZM176.83 0.35L176.69 0.1 176.83-1.7Q178.94-1.85 179.66-2.15 180.38-2.45 180.38-3.15L180.38-3.15Q180.38-3.95 180.03-4.85L180.03-4.85 178.83-8.7Q177.83-8.75 174.69-8.75L174.69-8.75Q173.23-8.75 170.38-8.45L170.38-8.45 168.98-4.75Q168.63-3.6 168.63-3.35L168.63-3.35Q168.63-2.55 169.19-2.2 169.73-1.85 170.98-1.85L170.98-1.85 173.13-1.85 173.28-1.65 172.98 0.25Q172.48 0.2 170.71 0.1 168.94 0 167.23 0L167.23 0Q165.63 0 164.36 0.05 163.08 0.1 162.63 0.1L162.63 0.1 162.94-1.95Q164.03-2.1 164.69-2.73 165.33-3.35 165.98-4.85L165.98-4.85 173.83-24.7 177.38-25.35 177.73-25.3Q177.73-25.1 180.01-17.4 182.28-9.7 184.08-4.65L184.08-4.65Q184.58-3.2 185.36-2.63 186.13-2.05 187.83-1.9L187.83-1.9 187.94-1.7 187.69 0.1Q187.19 0.1 185.83 0.05 184.48 0 183.13 0L183.13 0Q181.08 0 179.23 0.15 177.38 0.3 176.83 0.35L176.83 0.35ZM171.19-10.8L174.58-10.8Q176.33-10.8 178.23-11L178.23-11 175.19-20.7 174.83-20.7 171.19-10.8Z" opacity="1" transform="matrix(1,0,0,1,0,0)" fill="#ffdbe7" class="wordmark-text-0" data-fill-palette-color="primary"></path></svg></g><g><svg xmlns="http://www.w3.org/2000/svg" xmlns:xlink="http://www.w3.org/1999/xlink" version="1.1" x="311.0047" y="0" viewBox="14 2 36 60" style="enable-background:new 0 0 64 64;" xml:space="preserve" height="43.281499999999994" width="25.968899999999994" class="icon-dxe-0" data-fill-palette-color="accent" id="dxe-0"><path d="M45 36H42V32H14V57C14 59.8 16.2 62 19 62H37C39.8 62 42 59.8 42 57V54H45C47.8 54 50 51.8 50 49V41C50 38.2 47.8 36 45 36M23.9 54.5L22.2 55.5 17.8 48 22.1 40.5 23.8 41.5 20.2 48zM27 55.3L25 54.7 29 40.7 30.9 41.2zM33.9 55.5L32.2 54.5 35.9 48 32.2 41.5 33.9 40.5 38.2 48zM48 49C48 50.7 46.7 52 45 52H42V38H45C46.7 38 48 39.3 48 41z" fill="#fea498" data-fill-palette-color="accent"></path><g fill="#fea498" data-fill-palette-color="accent"><path d="M38 30H36V28C36 26.9 35.1 26 34 26H20C17.8 26 16 24.2 16 22S17.8 18 20 18H34C35.1 18 36 17.1 36 16S35.1 14 34 14H20C17.8 14 16 12.2 16 10S17.8 6 20 6H34C35.1 6 36 5.1 36 4V2H38V4C38 6.2 36.2 8 34 8H20C18.9 8 18 8.9 18 10S18.9 12 20 12H34C36.2 12 38 13.8 38 16S36.2 20 34 20H20C18.9 20 18 20.9 18 22S18.9 24 20 24H34C36.2 24 38 25.8 38 28z" fill="#fea498" data-fill-palette-color="accent"></path></g></svg></g></svg></g></svg></g></svg></g></svg></g><g></g></svg></g><defs></defs></svg><rect width="336.97360000000003" height="43.281499999999994" fill="none" stroke="none" visibility="hidden"></rect></g></svg></g></svg>